<?xml version="1.0" encoding="UTF-8" standalone="no"?>
<!-- Created with Inkscape (http://www.inkscape.org/) -->

<svg
   xmlns:dc="http://purl.org/dc/elements/1.1/"
   xmlns:cc="http://creativecommons.org/ns#"
   xmlns:rdf="http://www.w3.org/1999/02/22-rdf-syntax-ns#"
   xmlns:svg="http://www.w3.org/2000/svg"
   xmlns="http://www.w3.org/2000/svg"
   xmlns:sodipodi="http://sodipodi.sourceforge.net/DTD/sodipodi-0.dtd"
   xmlns:inkscape="http://www.inkscape.org/namespaces/inkscape"
   width="117.62817"
   height="56.676468"
   id="svg4434"
   version="1.1"
   inkscape:version="0.48.2 r9819"
   sodipodi:docname="Arrow-f.svg">
  <defs
     id="defs4436">
    <marker
       inkscape:stockid="Arrow2Mend"
       orient="auto"
       refY="0"
       refX="0"
       id="Arrow2Mend"
       style="overflow:visible">
      <path
         id="path4982"
         style="font-size:12px;fill-rule:evenodd;stroke-width:0.625;stroke-linejoin:round"
         d="M 8.7185878,4.0337352 -2.2072895,0.01601326 8.7185884,-4.0017078 c -1.7454984,2.3720609 -1.7354408,5.6174519 -6e-7,8.035443 z"
         transform="scale(-0.6,-0.6)"
         inkscape:connector-curvature="0" />
    </marker>
  </defs>
  <sodipodi:namedview
     id="base"
     pagecolor="#ffffff"
     bordercolor="#666666"
     borderopacity="1.0"
     inkscape:pageopacity="0.0"
     inkscape:pageshadow="2"
     inkscape:zoom="2.8284271"
     inkscape:cx="48.231792"
     inkscape:cy="1.5469103"
     inkscape:document-units="px"
     inkscape:current-layer="layer1"
     showgrid="false"
     fit-margin-top="1"
     fit-margin-left="1"
     fit-margin-right="1"
     fit-margin-bottom="1"
     showborder="false"
     inkscape:showpageshadow="false"
     inkscape:window-width="1280"
     inkscape:window-height="752"
     inkscape:window-x="348"
     inkscape:window-y="13"
     inkscape:window-maximized="0" />
  <metadata
     id="metadata4439">
    <rdf:RDF>
      <cc:Work
         rdf:about="">
        <dc:format>image/svg+xml</dc:format>
        <dc:type
           rdf:resource="http://purl.org/dc/dcmitype/StillImage" />
        <dc:title />
      </cc:Work>
    </rdf:RDF>
  </metadata>
  <g
     inkscape:label="Layer 1"
     inkscape:groupmode="layer"
     id="layer1"
     transform="translate(-111.375,-47.741166)">
    <path
       style="color:#000000;fill:#000000;fill-opacity:1;fill-rule:nonzero;stroke:#000000;stroke-width:1px;stroke-opacity:1;marker:none;marker-end:url(#Arrow2Mend);visibility:visible;display:inline;overflow:visible;enable-background:accumulate"
       d="m 112.38533,76.090468 114.10798,0"
       id="path4442"
       inkscape:connector-curvature="0"
       sodipodi:nodetypes="cc" />
    <path
       sodipodi:type="arc"
       style="fill:#d4aa00;fill-rule:evenodd;stroke:#000000;stroke-width:1px;stroke-linecap:butt;stroke-linejoin:miter;stroke-opacity:1"
       id="path5578"
       sodipodi:cx="179.94572"
       sodipodi:cy="83.082527"
       sodipodi:rx="15.170522"
       sodipodi:ry="26.840155"
       d="m 192.74717,68.680102 c 4.49587,12.508538 2.4091,29.096896 -4.66094,37.051138 -7.07005,7.95424 -16.44608,4.26225 -20.94195,-8.246288 -4.49587,-12.508537 -2.4091,-29.096895 4.66094,-37.051135 7.01873,-7.896503 16.32249,-4.321633 20.85762,8.014312"
       sodipodi:start="5.7167827"
       sodipodi:end="11.989692"
       sodipodi:open="true"
       transform="translate(-12.136418,-7.0017794)" />
    <g
       style="font-size:40px;font-style:normal;font-variant:normal;font-weight:normal;font-stretch:normal;text-align:start;line-height:125%;letter-spacing:0px;word-spacing:0px;writing-mode:lr-tb;text-anchor:start;fill:#000000;fill-opacity:1;stroke:none;font-family:Bitstream Vera Sans;-inkscape-font-specification:Bitstream Vera Sans"
       id="text5582">
      <path
         d="m 167.91881,72.326462 -0.87012,8.690429 c -0.19336,1.9694 -0.49414,3.469724 -0.90234,4.500977 -0.40105,1.031245 -1.05274,1.958653 -1.95508,2.782227 -1.32487,1.210278 -2.81087,1.81542 -4.45801,1.815429 -0.32942,-9e-6 -0.75195,-0.08953 -1.26758,-0.268554 l 1.42871,-1.310547 c 0.60873,0.200513 1.16016,0.300773 1.6543,0.300781 2.11263,-8e-6 3.33366,-1.600592 3.66309,-4.801758 l 0.27929,-2.664062 0.90235,-9.044922 -1.94434,0 1.22461,-1.246094 0.84863,0 0.0645,-0.623047 c 0.25781,-2.649726 1.0205,-4.712224 2.28808,-6.1875 1.26757,-1.482403 2.90397,-2.223614 4.90918,-2.223633 0.37955,1.9e-5 0.80566,0.03583 1.27832,0.107422 l -1.5039,1.482422 c -0.53712,-0.207665 -1.06349,-0.311506 -1.57911,-0.311523 -1.23177,1.7e-5 -2.10905,0.426124 -2.63183,1.27832 -0.52279,0.852229 -0.90235,2.48504 -1.13867,4.898437 l -0.16114,1.579102 4.35059,0 -1.27832,1.246094 -3.20117,0"
         style="font-size:22px;font-family:Apple Chancery;-inkscape-font-specification:Apple Chancery Medium"
         id="path5617" />
    </g>
  </g>
</svg>
